<svg width="64" height="44" viewBox="0 0 64 44" fill="none" xmlns="http://www.w3.org/2000/svg">
<g clip-path="url(#clip0_12_127)">
<path d="M5.55583 36.1323L5.59367 36.1701L8.15186 33.6119L5.20011 30.6602L8.78762 27.0727L11.7394 30.0244L9.11307 39.6895L12.7611 43.33L21.4574 34.6337L18.8538 32.0225L13.5331 37.3432L15.8113 28.9875L8.70436 21.873L0.000484467 30.5769L5.55583 36.1323Z" fill="white"/>
<path d="M24.8936 15.0014L18.3695 21.5255L16.3865 19.5425L22.9106 13.0184L20.2313 10.3391L10.6873 19.8831L23.448 32.6437L32.992 23.0998L24.8936 15.0014ZM27.9134 23.13L23.9929 27.0506L20.7157 23.7734L24.6362 19.8528L27.9134 23.13Z" fill="white"/>
<path d="M28.9353 5.99359L32.7498 2.17145L30.5777 -0.000732422L22.1538 8.42311L24.3184 10.5877L28.0573 6.85641L27.4821 13.759L29.7829 16.0522L30.4187 8.27174L38.0176 7.43919L35.8757 5.29728L28.9353 5.99359Z" fill="white"/>
<path d="M29.8814 16.1596L32.0687 18.3469L34.6118 17.2192L37.8284 20.4358L36.6704 22.9562L38.8805 25.1662L43.7849 13.223L41.8776 11.3157L29.8739 16.1671L29.8814 16.1596ZM36.9051 16.1747L40.4245 14.6231L38.8729 18.1425L36.9051 16.1747Z" fill="white"/>
<path d="M41.1203 23.5987L39.2205 25.4984L48.4012 34.6791L50.301 32.7794L49.476 31.9544L53.2451 22.6678L51.3227 20.7454L42.0058 24.4767L41.1278 23.5987H41.1203ZM49.915 24.0074L47.3038 29.7898L44.1326 26.6186L49.915 24.0074Z" fill="white"/>
<path d="M49.1356 35.4129L51.1715 37.4488L53.601 35.0193L58.006 39.4242L64.0003 33.4299L57.567 26.9966L49.1431 35.4204H49.1356V35.4129ZM55.4099 33.2407L57.9227 30.7279L60.5641 33.3693L58.0514 35.8821L55.4099 33.2407Z" fill="white"/>
</g>
<defs>
<clipPath id="clip0_12_127">
<rect width="64" height="43.3302" fill="white"/>
</clipPath>
</defs>
</svg>
