<svg width="1440" height="86" viewBox="0 0 1440 86" fill="none" xmlns="http://www.w3.org/2000/svg">
<g clip-path="url(#clip0_0_101)">
<path d="M1443.52 96.7205C1441.25 92.822 1427.45 95.5479 1419.66 96.7205C1411.88 97.893 1394.64 93.5962 1385.26 96.7205C1375.88 99.8448 1370.01 100.368 1361.91 96.7205C1353.81 93.0726 1346.39 98.516 1340.75 96.7205C1335.1 94.925 1330.06 95.583 1327.02 96.7205C1323.99 97.8579 1324.61 96.8791 1323.53 96.7205C1322.45 96.5618 1324.88 97.3195 1320.96 96.7205C1317.05 96.1214 1309.95 96.9029 1307.27 96.7205C1304.59 96.5381 1302.98 96.2349 1300.87 96.7205C1298.75 97.2061 1297.97 94.8074 1295.15 96.7205C1292.33 98.6335 1289.97 97.3754 1284.41 96.7205C1278.85 96.0655 1267.73 101.124 1265.17 96.7205C1262.6 92.3169 1264.4 98.4508 1263.56 96.7205C1262.73 94.9902 1261.17 97.7269 1258.02 96.7205C1254.86 95.7141 1244.75 112.944 1241.5 96.7205C1238.25 80.4974 1240.68 97.477 1233.49 96.7205C1226.3 95.9639 1226.88 94.0691 1220.42 96.7205C1213.96 99.3718 1199.31 91.0126 1196.35 96.7205C1193.39 102.428 1192.34 96.3183 1188.08 96.7205C1183.82 97.1226 1176.21 94.3388 1171.15 96.7205C1166.08 99.1021 1169.64 94.7722 1161.91 96.7205C1154.18 98.6687 1136.14 94.7962 1127.96 96.7205C1119.77 98.6447 1114.78 90.1736 1106.73 96.7205C1098.68 103.267 1083.51 90.3113 1079.12 96.7205C1074.73 103.13 1074.82 98.6556 1072.13 96.7205C1069.44 94.7853 1071.02 95.8436 1066.32 96.7205C1061.63 97.5973 1055.02 98.7968 1047.79 96.7205C1040.56 94.6442 1041.56 95.1951 1037.63 96.7205C1033.69 98.2458 1026.92 94.825 1022.78 96.7205C1018.64 98.616 1017.14 94.2315 1013.8 96.7205C1010.46 99.2094 1010.79 95.393 1004.92 96.7205C999.041 98.048 986.734 92.4101 979.072 96.7205C971.41 101.031 962.207 103.613 957.171 96.7205C952.135 89.8281 932.711 102.515 925.297 96.7205C917.883 90.9256 906.603 96.7205 899.227 96.7205C891.852 96.7205 882.054 96.7205 877.101 96.7205C872.149 96.7205 872.341 96.7205 869.896 96.7205C867.451 96.7205 865.538 96.7205 863.185 96.7205C860.831 96.7205 860.812 96.7205 858.824 96.7205C856.836 96.7205 858.789 98.3344 855.329 96.7205C851.868 95.1066 845.266 96.4657 840.578 96.7205C835.89 96.9752 836.625 95.1749 831.728 96.7205C826.83 98.266 822.494 96.2856 815.085 96.7205C807.677 97.1553 797.208 93.2278 789.753 96.7205C782.298 100.213 774.306 98.7802 768.846 96.7205C763.385 94.6607 763.835 96.9986 761.342 96.7205C758.85 96.4423 758.43 94.203 756.372 96.7205C754.314 99.238 751.848 96.7205 749.43 96.7205C747.012 96.7205 745.828 100.07 742.487 96.7205C739.147 93.3712 735.478 92.2822 728.955 96.7205C722.432 101.159 721.876 96.0577 714.782 96.7205C707.688 97.3833 693.533 97.9303 686.852 96.7205C680.171 95.5107 678.707 96.6884 675.148 96.7205C671.589 96.7525 673.898 96.7205 667.805 96.7205C661.712 96.7205 649.255 96.7205 644.108 96.7205C638.961 96.7205 640.02 96.7205 634.937 96.7205C629.854 96.7205 629.395 101.724 624.291 96.7205C619.187 91.7172 607.936 92.7077 602.839 96.7205C597.742 100.733 596.544 95.4305 594.566 96.7205C592.587 98.0104 592.096 96.7205 588.601 96.7205C585.106 96.7205 583.102 96.7205 578.532 96.7205C573.963 96.7205 571.574 96.7205 566.828 96.7205C562.082 96.7205 553.282 95.2942 545.953 96.7205C538.624 98.1467 526.297 96.7205 520.3 96.7205C514.304 96.7205 506.944 96.7205 502.247 96.7205C497.549 96.7205 495.979 96.4164 492.819 96.7205C489.659 97.0245 476.626 96.7205 473.227 96.7205C469.828 96.7205 476.305 96.7205 472.97 96.7205C469.635 96.7205 460.593 96.7205 455.398 96.7205C450.203 96.7205 449.562 96.7205 442.571 96.7205C435.581 96.7205 418.204 98.3497 411.634 96.7205C405.064 95.0912 406.121 98.2408 402.014 96.7205C397.907 95.2001 394.058 95.1813 387.841 96.7205C381.623 98.2596 377.667 97.2032 371.808 96.7205C365.948 96.2378 367.317 99.2327 363.022 96.7205C358.726 94.2082 355.833 94.3323 349.842 96.7205C343.852 99.1086 337.43 93.8054 331.853 96.7205C326.276 99.6355 327.501 96.0049 322.49 96.7205C317.479 97.436 313.206 94.0281 308.316 96.7205C303.427 99.4128 298.601 95.472 293.855 96.7205C289.108 97.969 289.009 99.0347 285.646 96.7205C282.282 94.4062 282.326 102.058 280.13 96.7205C277.934 91.3826 277.787 96.3915 274.166 96.7205C270.545 97.0494 268.387 95.6118 263.937 96.7205C259.487 97.8291 257.658 95.19 252.393 96.7205C247.128 98.2509 242.878 95.9108 239.566 96.7205C236.254 97.5301 234.737 100.362 230.973 96.7205C227.208 93.079 227.086 91.649 221 96.7205C214.914 101.792 206.669 96.5346 198.868 96.7205C191.067 96.9064 184.887 96.7205 178.57 96.7205C172.253 96.7205 167.699 96.7205 162.537 96.7205C157.374 96.7205 153.013 96.7205 148.395 96.7205C143.778 96.7205 138.855 94.615 134.864 96.7205C130.872 98.8259 129.282 91.1768 124.378 96.7205C119.474 102.264 110.574 95.9513 104.497 96.7205C98.4194 97.4896 95.9715 100.314 92.3757 96.7205C88.78 93.1273 88.3418 94.5803 82.7558 96.7205C77.1698 98.8606 65.9852 103.978 60.6622 96.7205C55.3392 89.4628 44.4244 94.8738 37.0293 96.7205C29.6343 98.5671 27.6904 94.5221 24.3632 96.7205C21.0359 98.9188 22.1285 97.7111 20.6435 96.7205C19.1584 95.7298 22.0917 100.41 17.8216 96.7205C13.5515 93.0309 0.465676 92.333 -2.92525 96.7205C-6.31617 101.108 -5.16988 55.8837 -7.44659 48.4498C-9.72329 39.606 -12 30.3457 -12 29.5126C-6.54873 33.0373 -1.12953 39.9585 4.6424 40.6314C7.84902 39.2856 15.1922 43.8357 18.3988 40.6314C23.4974 39.606 26.7361 33.9665 31.4177 37.9078C36.3559 35.2803 41.3583 33.5179 46.1682 38.1321C51.395 40.2789 54.9544 52.327 60.6622 46.0146C69.0956 46.1748 74.2903 47.104 80.9601 52.9358C87.6299 58.7675 98.5645 52.6794 106.389 48.8984C113.507 47.9692 121.075 43.2589 128.546 48.0333C136.05 46.1107 143.457 46.7516 150.287 45.2456C158.272 38.1641 166.064 34.9599 175.139 37.2669C183.444 38.8691 190.755 42.5219 199.285 36.8504C203.229 42.1374 206.211 37.0747 210.155 35.1842C218.521 33.7901 226.79 31.8637 234.91 29.4165C241.516 27.3978 245.204 18.0414 251.489 18.9065C256.17 10.0628 261.493 22.7516 266.271 18.9065C271.209 21.4379 274.961 17.9131 280.124 14.9011C284.485 19.6755 289.231 13.0747 293.624 15.0934C302.217 14.4526 314.852 12.4659 322.483 17.2723C324.92 14.8051 326.363 15.1575 329.121 22.0787C332.552 22.0787 336.913 17.785 340.44 22.303C344.898 22.303 346.661 28.7116 350.862 26.052C352.85 29.2563 354.742 26.3404 356.73 26.3084C357.66 26.3084 359.456 23.4886 360.867 30.1214C364.394 30.3137 369.3 26.9172 373.084 32.781C376.29 35.088 379.144 39.4779 382.447 34.5433C386.359 30.6021 387.385 25.1548 392.067 27.8144C393.526 28.221 394.883 28.9268 396.054 29.8867C397.224 30.8467 398.182 32.0397 398.865 33.3898C403.515 40.5673 410.345 34.0627 415.924 35.056C427.019 37.5874 438.178 40.8877 449.273 35.056C452.095 36.1454 454.308 34.7997 457.001 35.7609C461.074 40.5032 460.849 38.0039 465.403 40.6955C473.034 40.2469 481.019 34.4472 488.811 38.6448C493.076 45.0533 496.699 39.1895 501.092 40.5353C501.619 39.9168 502.284 39.4304 503.034 39.1155C503.783 38.8005 504.596 38.6656 505.407 38.7217C506.218 38.7778 507.004 39.0233 507.703 39.4385C508.402 39.8536 508.993 40.4269 509.43 41.1121C512.476 44.1241 511.129 46.2389 512.829 49.347C515.715 52.5513 525.912 53.4805 531.203 51.3977C535.948 44.6367 540.823 47.5206 545.44 51.3977C552.366 54.2175 557.497 52.3911 563.301 47.3924C566.732 37.2349 568.303 44.7008 571.991 42.2656C575.39 44.2843 577.603 37.0106 580.649 38.1641C585.908 33.8063 592.642 38.4205 599.6 32.6848C606.59 30.8904 613.837 28.3911 620.154 33.2296C628.043 31.6595 636.188 34.3831 643.627 35.0239C647.443 40.2149 647.25 38.7729 651.419 36.7542C654.642 37.3216 657.73 38.4844 660.526 40.1828C666.073 33.7743 673.16 35.6328 679.028 40.4712C684.672 38.3243 690.412 40.2469 696.023 40.4712C703.623 43.0346 711.832 37.7155 720.041 36.9145C728.218 41.112 736.363 43.1628 743.802 40.343C746.111 44.2522 747.65 41.8811 749.702 45.4378C750.151 42.2335 753.39 48.6421 753.646 49.1548C758.264 53.128 762.689 47.6488 766.986 47.809C772.758 46.0146 777.44 51.2696 782.634 43.9959C787.292 41.8371 791.518 38.8514 795.108 35.1842C800.068 34.4786 805.126 35.1896 809.698 37.2349C811.697 37.6993 813.784 37.6138 815.737 36.9876C817.691 36.3613 819.438 35.2176 820.793 33.6782C823.102 29.064 823.102 27.2696 826.373 31.7877C829.772 28.7757 833.267 41.9452 836.602 38.6768C841.219 41.5606 846.799 38.8691 851.833 39.9265C858.663 38.1962 865.718 30.7302 872.837 38.1962C879.955 40.0546 887.106 35.9532 894.065 38.5166C896.886 33.3577 902.915 43.1307 905.256 38.5166C907.596 40.6314 907.468 40.6635 909.905 45.8544C912.342 54.3777 917.313 54.2495 920.327 47.5526C924.19 47.7755 928.052 47.1067 931.614 45.598C936.841 38.6127 942.196 45.2135 947.423 45.4378C952.252 44.7934 957.141 46.0581 961.051 48.9625C968.49 52.1668 972.755 47.2322 978.367 43.2269C981.573 38.3564 982.183 40.9839 986.031 39.3177C988.564 35.2162 990.712 39.1254 993.31 35.0239C997.767 36.7222 1003.57 30.1214 1008.25 34.7035C1012.87 33.0373 1015.66 35.9852 1019.76 36.6902C1022.68 35.6968 1024.25 40.6635 1026.5 34.319C1030.15 27.9105 1030.19 39.0613 1034.58 31.1148C1040.09 37.2029 1045.9 31.1148 1051.45 31.1148C1054.24 27.6542 1057.44 32.4285 1060.2 31.1148C1064.63 30.4739 1062.54 32.3003 1065.97 34.319C1070.11 38.9011 1074.12 43.0667 1079.47 36.53C1083.42 40.5032 1087.36 38.036 1091.3 36.53C1094.51 35.6328 1097.72 36.9465 1100.64 36.2095C1103.46 38.5807 1106.21 33.9666 1109.29 32.3324C1112.31 27.8784 1115.55 33.1655 1118.56 30.4098C1123.95 32.2363 1127.96 24.546 1133.31 22.3351C1138.67 14.036 1144.6 22.0147 1150.08 21.7263C1154.41 17.9773 1157.55 22.6235 1161.91 16.8878C1164.64 25.6995 1167.27 14.9332 1169.83 15.7022C1171.5 16.1188 1173.3 8.23625 1175.19 12.7222C1176.82 10.0627 1178.78 17.7209 1180.48 13.0106C1185.77 13.6835 1187.47 13.1708 1191.48 7.40311C1199.98 2.24424 1209.92 -4.61292 1220.34 2.01991C1225.82 0.802284 1231.27 2.43646 1236.76 2.01991C1244.23 -1.18436 1251.67 3.07732 1259.2 2.01991C1266.67 -0.799843 1274.11 2.01991 1281.65 2.01991C1286.07 3.33366 1289.12 5.22418 1293.1 3.87839C1296.14 5.32031 1299.51 0.930466 1302.72 3.68613C1308.36 1.82766 1316.25 0.289658 1321.03 8.87708C1323.11 12.0813 1323.66 15.7342 1325.48 13.1708C1326.64 11.1842 1327.79 13.1709 1328.95 16.5674C1330.87 21.1495 1331.71 23.9372 1331.48 22.1749C1337.54 28.1989 1354.34 22.6555 1363.55 26.02C1370.31 27.1735 1376.98 29.3845 1384.23 27.3017C1388.3 24.514 1390.35 29.8651 1394.07 30.7623C1399.3 31.8517 1405.75 28.2309 1411.1 31.0827C1418.51 32.5887 1425.76 27.0774 1433.03 30.1855C1440.31 30.4419 1447.59 31.9799 1455 29.2563C1455.06 31.0827 1445.79 100.619 1443.52 96.7205Z" fill="white"/>
</g>
<defs>
<clipPath id="clip0_0_101">
<rect width="1440" height="86" fill="white" transform="matrix(1 0 0 -1 0 86)"/>
</clipPath>
</defs>
</svg>
