<svg width="1440" height="86" viewBox="0 0 1440 86" fill="none" xmlns="http://www.w3.org/2000/svg">
<g clip-path="url(#clip0_0_159)">
<path d="M1443.52 -10.6406C1441.25 -6.77126 1427.45 -9.47681 1419.66 -10.6406C1411.88 -11.8045 1394.64 -7.53963 1385.26 -10.6406C1375.88 -13.7417 1370.01 -14.2613 1361.91 -10.6406C1353.81 -7.01999 1346.39 -12.4228 1340.75 -10.6406C1335.1 -8.85851 1330.06 -9.51168 1327.02 -10.6406C1323.99 -11.7696 1324.61 -10.7981 1323.53 -10.6406C1322.45 -10.4832 1324.88 -11.2352 1320.96 -10.6406C1317.05 -10.0461 1309.95 -10.8217 1307.27 -10.6406C1304.59 -10.4596 1302.98 -10.1586 1300.87 -10.6406C1298.75 -11.1226 1297.97 -8.74185 1295.15 -10.6406C1292.33 -12.5394 1289.97 -11.2907 1284.41 -10.6406C1278.85 -9.99058 1267.73 -15.0114 1265.17 -10.6406C1262.6 -6.26991 1264.4 -12.3581 1263.56 -10.6406C1262.73 -8.92323 1261.17 -11.6395 1258.02 -10.6406C1254.86 -9.64175 1244.75 -26.7429 1241.5 -10.6406C1238.25 5.46159 1240.68 -11.3915 1233.49 -10.6406C1226.3 -9.88976 1226.88 -8.00907 1220.42 -10.6406C1213.96 -13.2722 1199.31 -4.97528 1196.35 -10.6406C1193.39 -16.306 1192.34 -10.2415 1188.08 -10.6406C1183.82 -11.0398 1176.21 -8.27672 1171.15 -10.6406C1166.08 -13.0046 1169.64 -8.70693 1161.91 -10.6406C1154.18 -12.5744 1136.14 -8.73074 1127.96 -10.6406C1119.77 -12.5505 1114.78 -4.14251 1106.73 -10.6406C1098.68 -17.1388 1083.51 -4.27925 1079.12 -10.6406C1074.73 -17.002 1074.82 -12.5614 1072.13 -10.6406C1069.44 -8.71992 1071.02 -9.77034 1066.32 -10.6406C1061.63 -11.511 1055.02 -12.7015 1047.79 -10.6406C1040.56 -8.57982 1041.56 -9.12663 1037.63 -10.6406C1033.69 -12.1547 1026.92 -8.75927 1022.78 -10.6406C1018.64 -12.522 1017.14 -8.17025 1013.8 -10.6406C1010.46 -13.111 1010.79 -9.32303 1004.92 -10.6406C999.041 -11.9583 986.734 -6.36238 979.072 -10.6406C971.41 -14.9189 962.207 -17.4817 957.171 -10.6406C952.135 -3.79962 932.711 -16.3923 925.297 -10.6406C917.883 -4.88899 906.603 -10.6406 899.227 -10.6406C891.852 -10.6406 882.054 -10.6406 877.101 -10.6406C872.149 -10.6406 872.341 -10.6406 869.896 -10.6406C867.451 -10.6406 865.538 -10.6406 863.185 -10.6406C860.831 -10.6406 860.812 -10.6406 858.824 -10.6406C856.836 -10.6406 858.789 -12.2425 855.329 -10.6406C851.868 -9.03877 845.266 -10.3878 840.578 -10.6406C835.89 -10.8935 836.625 -9.10663 831.728 -10.6406C826.83 -12.1747 822.494 -10.209 815.085 -10.6406C807.677 -11.0723 797.208 -7.17399 789.753 -10.6406C782.298 -14.1073 774.306 -12.6851 768.846 -10.6406C763.385 -8.59623 763.835 -10.9167 761.342 -10.6406C758.85 -10.3646 758.43 -8.14191 756.372 -10.6406C754.314 -13.1394 751.848 -10.6406 749.43 -10.6406C747.012 -10.6406 745.828 -13.9649 742.487 -10.6406C739.147 -7.31636 735.478 -6.23546 728.955 -10.6406C722.432 -15.0458 721.876 -9.98278 714.782 -10.6406C707.688 -11.2985 693.533 -11.8414 686.852 -10.6406C680.171 -9.43985 678.707 -10.6088 675.148 -10.6406C671.589 -10.6724 673.898 -10.6406 667.805 -10.6406C661.712 -10.6406 649.255 -10.6406 644.108 -10.6406C638.961 -10.6406 640.02 -10.6406 634.937 -10.6406C629.854 -10.6406 629.395 -15.6066 624.291 -10.6406C619.187 -5.67468 607.936 -6.65775 602.839 -10.6406C597.742 -14.6235 596.544 -9.36028 594.566 -10.6406C592.587 -11.921 592.096 -10.6406 588.601 -10.6406C585.106 -10.6406 583.102 -10.6406 578.532 -10.6406C573.963 -10.6406 571.574 -10.6406 566.828 -10.6406C562.082 -10.6406 553.282 -9.225 545.953 -10.6406C538.624 -12.0563 526.297 -10.6406 520.3 -10.6406C514.304 -10.6406 506.944 -10.6406 502.247 -10.6406C497.549 -10.6406 495.979 -10.3389 492.819 -10.6406C489.659 -10.9424 476.626 -10.6406 473.227 -10.6406C469.828 -10.6406 476.305 -10.6406 472.97 -10.6406C469.635 -10.6406 460.593 -10.6406 455.398 -10.6406C450.203 -10.6406 449.562 -10.6406 442.571 -10.6406C435.581 -10.6406 418.204 -12.2577 411.634 -10.6406C405.064 -9.02356 406.121 -12.1497 402.014 -10.6406C397.907 -9.13164 394.058 -9.11296 387.841 -10.6406C381.623 -12.1683 377.667 -11.1197 371.808 -10.6406C365.948 -10.1615 367.317 -13.1342 363.022 -10.6406C358.726 -8.14711 355.833 -8.27026 349.842 -10.6406C343.852 -13.011 337.43 -7.74731 331.853 -10.6406C326.276 -13.534 327.501 -9.93045 322.49 -10.6406C317.479 -11.3508 313.206 -7.96838 308.316 -10.6406C303.427 -13.3129 298.601 -9.40144 293.855 -10.6406C289.108 -11.8799 289.009 -12.9377 285.646 -10.6406C282.282 -8.34363 282.326 -15.9388 280.13 -10.6406C277.934 -5.3425 277.787 -10.3142 274.166 -10.6406C270.545 -10.9671 268.387 -9.54026 263.937 -10.6406C259.487 -11.741 257.658 -9.1216 252.393 -10.6406C247.128 -12.1597 242.878 -9.837 239.566 -10.6406C236.254 -11.4443 234.737 -14.255 230.973 -10.6406C227.208 -7.0263 227.086 -5.60699 221 -10.6406C214.914 -15.6743 206.669 -10.4561 198.868 -10.6406C191.067 -10.8252 184.887 -10.6406 178.57 -10.6406C172.253 -10.6406 167.699 -10.6406 162.537 -10.6406C157.374 -10.6406 153.013 -10.6406 148.395 -10.6406C143.778 -10.6406 138.855 -8.55086 134.864 -10.6406C130.872 -12.7304 129.282 -5.13826 124.378 -10.6406C119.474 -16.143 110.574 -9.87725 104.497 -10.6406C98.4194 -11.404 95.9715 -14.207 92.3757 -10.6406C88.78 -7.07429 88.3418 -8.51647 82.7558 -10.6406C77.1698 -12.7648 65.9852 -17.8443 60.6622 -10.6406C55.3392 -3.43704 44.4244 -8.80775 37.0293 -10.6406C29.6343 -12.4735 27.6904 -8.45867 24.3632 -10.6406C21.0359 -12.8226 22.1285 -11.6239 20.6435 -10.6406C19.1584 -9.65738 22.0917 -14.3027 17.8216 -10.6406C13.5515 -6.97858 0.465676 -6.28587 -2.92525 -10.6406C-6.31617 -14.9954 -5.16988 29.8919 -7.44659 37.2705C-9.72329 46.0484 -12 55.2397 -12 56.0666C-6.54873 52.5682 -1.12953 45.6985 4.6424 45.0306C7.84902 46.3664 15.1922 41.8502 18.3988 45.0306C23.4974 46.0484 26.7361 51.6459 31.4177 47.734C36.3559 50.3419 41.3583 52.0911 46.1682 47.5114C51.395 45.3805 54.9544 33.4222 60.6622 39.6876C69.0956 39.5285 74.2903 38.6062 80.9601 32.8179C87.6299 27.0296 98.5645 33.0723 106.389 36.8252C113.507 37.7475 121.075 42.4227 128.546 37.6839C136.05 39.5922 143.457 38.9561 150.287 40.4509C158.272 47.4795 166.064 50.66 175.139 48.3701C183.444 46.7799 190.755 43.1542 199.285 48.7835C203.229 43.5359 206.211 48.5609 210.155 50.4373C218.521 51.821 226.79 53.7331 234.91 56.162C241.516 58.1657 245.204 67.4524 251.489 66.5937C256.17 75.3716 261.493 62.7772 266.271 66.5937C271.209 64.0812 274.961 67.5797 280.124 70.5693C284.485 65.8305 289.231 72.3821 293.624 70.3784C302.217 71.0145 314.852 72.9863 322.483 68.2157C324.92 70.6646 326.363 70.3148 329.121 63.4451C332.552 63.4451 336.913 67.7069 340.44 63.2225C344.898 63.2225 346.661 56.8617 350.862 59.5014C352.85 56.321 354.742 59.2152 356.73 59.247C357.66 59.247 359.456 62.0458 360.867 55.4623C364.394 55.2715 369.3 58.6427 373.084 52.8226C376.29 50.5327 379.144 46.1756 382.447 51.0734C386.359 54.9853 387.385 60.3919 392.067 57.7522C393.526 57.3486 394.883 56.6481 396.054 55.6953C397.224 54.7425 398.182 53.5584 398.865 52.2183C403.515 45.0942 410.345 51.5505 415.924 50.5645C427.019 48.052 438.178 44.7762 449.273 50.5645C452.095 49.4832 454.308 50.819 457.001 49.8648C461.074 45.1579 460.849 47.6386 465.403 44.967C473.034 45.4123 481.019 51.1688 488.811 47.0025C493.076 40.6417 496.699 46.4618 501.092 45.126C501.619 45.74 502.284 46.2227 503.034 46.5353C503.783 46.8479 504.596 46.9818 505.407 46.9261C506.218 46.8704 507.004 46.6267 507.703 46.2147C508.402 45.8026 508.993 45.2337 509.43 44.5536C512.476 41.564 511.129 39.4649 512.829 36.38C515.715 33.1996 525.912 32.2772 531.203 34.3445C535.948 41.0551 540.823 38.1928 545.44 34.3445C552.366 31.5457 557.497 33.3586 563.301 38.32C566.732 48.4019 568.303 40.9915 571.991 43.4086C575.39 41.405 577.603 48.6245 580.649 47.4795C585.908 51.8049 592.642 47.2251 599.6 52.918C606.59 54.699 613.837 57.1798 620.154 52.3774C628.043 53.9358 636.188 51.2324 643.627 50.5963C647.443 45.4441 647.25 46.8753 651.419 48.8789C654.642 48.3158 657.73 47.1617 660.526 45.4759C666.073 51.8367 673.16 49.9921 679.028 45.1897C684.672 47.3205 690.412 45.4123 696.023 45.1897C703.623 42.6453 711.832 47.9248 720.041 48.7199C728.218 44.5536 736.363 42.5181 743.802 45.3169C746.111 41.4368 747.65 43.7903 749.702 40.26C750.151 43.4404 753.39 37.0796 753.646 36.5708C758.264 32.6271 762.689 38.0656 766.986 37.9065C772.758 39.6876 777.44 34.4717 782.634 41.6912C787.292 43.834 791.518 46.7974 795.108 50.4373C800.068 51.1376 805.126 50.4319 809.698 48.4019C811.697 47.9409 813.784 48.0257 815.737 48.6474C817.691 49.269 819.438 50.4041 820.793 51.9321C823.102 56.5119 823.102 58.2929 826.373 53.8085C829.772 56.7981 833.267 43.7267 836.602 46.9707C841.219 44.1083 846.799 46.7799 851.833 45.7303C858.663 47.4477 865.718 54.8581 872.837 47.4477C879.955 45.6031 887.106 49.674 894.065 47.1297C896.886 52.2501 902.915 42.5499 905.256 47.1297C907.596 45.0306 907.468 44.9988 909.905 39.8466C912.342 31.3867 917.313 31.514 920.327 38.161C924.19 37.9398 928.052 38.6036 931.614 40.101C936.841 47.0343 942.196 40.4827 947.423 40.26C952.252 40.8996 957.141 39.6444 961.051 36.7616C968.49 33.5812 972.755 38.479 978.367 42.4545C981.573 47.2887 982.183 44.6808 986.031 46.3346C988.564 50.4055 990.712 46.5254 993.31 50.5963C997.767 48.9107 1003.57 55.4623 1008.25 50.9144C1012.87 52.5682 1015.66 49.6422 1019.76 48.9425C1022.68 49.9285 1024.25 44.9988 1026.5 51.296C1030.15 57.6568 1030.19 46.589 1034.58 54.4764C1040.09 48.4337 1045.9 54.4764 1051.45 54.4764C1054.24 57.9112 1057.44 53.1724 1060.2 54.4764C1064.63 55.1125 1062.54 53.2997 1065.97 51.296C1070.11 46.7481 1074.12 42.6135 1079.47 49.1015C1083.42 45.1579 1087.36 47.6068 1091.3 49.1015C1094.51 49.9921 1097.72 48.6881 1100.64 49.4196C1103.46 47.0661 1106.21 51.6459 1109.29 53.2679C1112.31 57.6886 1115.55 52.441 1118.56 55.1761C1123.95 53.3633 1127.96 60.9962 1133.31 63.1907C1138.67 71.4279 1144.6 63.5087 1150.08 63.795C1154.41 67.516 1157.55 62.9045 1161.91 68.5974C1164.64 59.8513 1167.27 70.5375 1169.83 69.7742C1171.5 69.3607 1173.3 77.1845 1175.19 72.732C1176.82 75.3717 1178.78 67.7705 1180.48 72.4457C1185.77 71.7778 1187.47 72.2867 1191.48 78.0115C1199.98 83.1319 1209.92 89.938 1220.34 83.3546C1225.82 84.5631 1231.27 82.9411 1236.76 83.3546C1244.23 86.535 1251.67 82.305 1259.2 83.3546C1266.67 86.1533 1274.11 83.3546 1281.65 83.3546C1286.07 82.0506 1289.12 80.1741 1293.1 81.5099C1296.14 80.0787 1299.51 84.4359 1302.72 81.7007C1308.36 83.5454 1316.25 85.0719 1321.03 76.5485C1323.11 73.3681 1323.66 69.7424 1325.48 72.2867C1326.64 74.2586 1327.79 72.2866 1328.95 68.9154C1330.87 64.3675 1331.71 61.6005 1331.48 63.3497C1337.54 57.3706 1354.34 62.8727 1363.55 59.5332C1370.31 58.3883 1376.98 56.1938 1384.23 58.2611C1388.3 61.028 1390.35 55.7168 1394.07 54.8262C1399.3 53.7449 1405.75 57.3388 1411.1 54.5082C1418.51 53.0134 1425.76 58.4837 1433.03 55.3987C1440.31 55.1443 1447.59 53.6177 1455 56.321C1455.06 54.5082 1445.79 -14.51 1443.52 -10.6406Z" fill="white"/>
</g>
<defs>
<clipPath id="clip0_0_159">
<rect width="1440" height="85.3594" fill="white"/>
</clipPath>
</defs>
</svg>
